<svg xmlns="http://www.w3.org/2000/svg" width="14" height="14" viewBox="0 0 14 14" fill="none">
  <g clip-path="url(#clip0_239_628)">
    <path d="M0.404907 3.62056L0.404907 9.58259C0.404907 11.523 1.98349 13.1016 3.92388 13.1016H9.88601C11.8263 13.1016 13.4049 11.523 13.4049 9.58259V3.62046C13.4049 1.68017 11.8263 0.101586 9.88601 0.101586H3.92388C1.98349 0.101586 0.404907 1.68017 0.404907 3.62056H0.404907ZM9.88601 0.863701C11.4061 0.863701 12.6428 2.1004 12.6428 3.62056V9.58259C12.6428 11.1027 11.4061 12.3394 9.88601 12.3394H3.92388C2.40372 12.3394 1.16702 11.1027 1.16702 9.58259L1.16702 3.62046C1.16702 2.1004 2.40372 0.863701 3.92388 0.863701H9.88601Z" fill="#1A202C"/>
    <path d="M3.35034 6.60167C3.35034 8.5617 4.94489 10.1562 6.90492 10.1562C8.86496 10.1562 10.4595 8.5617 10.4595 6.60167C10.4595 4.64164 8.86496 3.04709 6.90492 3.04709C4.94489 3.04709 3.35034 4.64164 3.35034 6.60167ZM9.69739 6.60167C9.69739 8.14137 8.44472 9.39414 6.90492 9.39414C5.36522 9.39414 4.11246 8.14137 4.11246 6.60167C4.11246 5.06187 5.36522 3.8092 6.90492 3.8092C8.44472 3.8092 9.69739 5.06187 9.69739 6.60167Z" fill="#1A202C"/>
    <path d="M2.08795 2.96187C2.08795 3.54109 2.55917 4.01221 3.13829 4.01221C3.71751 4.01221 4.18872 3.54109 4.18872 2.96187C4.18872 2.38265 3.71751 1.91144 3.13829 1.91144C2.55907 1.91144 2.08795 2.38265 2.08795 2.96187ZM3.42651 2.96187C3.42651 3.12076 3.29718 3.25009 3.13829 3.25009C2.9793 3.25009 2.85007 3.12076 2.85007 2.96187C2.85007 2.80288 2.9793 2.67355 3.13829 2.67355C3.29718 2.67355 3.42651 2.80288 3.42651 2.96187Z" fill="#1A202C"/>
  </g>
  <defs>
    <clipPath id="clip0_239_628">
      <rect width="13" height="13" fill="white" transform="matrix(0 -1 1 0 0.404907 13.1016)"/>
    </clipPath>
  </defs>
</svg>