<svg xmlns="http://www.w3.org/2000/svg" width="12" height="12" viewBox="0 0 12 12" fill="none">
  <g clip-path="url(#clip0_239_642)">
    <path d="M11.4049 0.104477H11.4045V0.101727L7.37022 0.101727C5.39663 0.101727 3.87634 0.526602 3.87634 2.83385C3.87634 3.94302 4.48501 4.68735 5.06205 4.99123V5.02331H4.06059V7.21094L11.4045 7.21094V4.93302H7.76805C6.81059 4.93302 5.88476 4.75152 5.88476 3.56581C5.88476 2.39752 6.97743 2.3801 7.82947 2.3801L11.4049 2.3801V0.104477Z" fill="#1A202C"/>
    <path d="M4.06104 10.9199V8.63926H11.4049V10.9199H4.06104Z" fill="#1A202C"/>
    <path d="M0.404907 9.78065C0.404907 10.5099 0.996616 11.1016 1.72582 11.1016C2.45503 11.1016 3.05912 10.5099 3.05912 9.78065C3.05912 9.05144 2.45503 8.45973 1.72582 8.45973C0.996616 8.46019 0.404907 9.0519 0.404907 9.78065H0.404907Z" fill="#1A202C"/>
  </g>
  <defs>
    <clipPath id="clip0_239_642">
      <rect width="11" height="11" fill="white" transform="matrix(0 -1 1 0 0.404907 11.1016)"/>
    </clipPath>
  </defs>
</svg>