<svg xmlns="http://www.w3.org/2000/svg" width="14" height="14" viewBox="0 0 14 14" fill="none">
  <g clip-path="url(#clip0_239_635)">
    <path d="M2.87409 0.101562C3.08616 0.585 3.22672 1.10013 3.29497 1.63719C2.96509 1.08469 2.44672 0.663 1.82191 0.464749C2.12903 0.979875 2.34597 1.54862 2.46703 2.15475C1.94622 2.64388 1.62366 3.341 1.62366 4.1015C1.62366 5.577 2.82128 6.76488 4.28947 6.76488C4.50072 6.76488 4.70384 6.747 4.89722 6.70312C4.78916 8.91881 3.72722 10.8794 2.10953 12.1964C2.50847 12.4264 2.96509 12.5612 3.45666 12.5612C4.37966 12.5612 5.19784 12.0859 5.67153 11.3774C5.66341 11.8056 5.53909 12.2257 5.34328 12.5816C5.35141 12.5816 5.36197 12.5816 5.37253 12.5816C6.66766 12.5816 7.74341 11.6578 7.99122 10.4463C8.05053 10.6632 8.07897 10.8997 8.07897 11.1451C8.07897 11.3157 8.06922 11.4879 8.03347 11.6496C9.08891 11.3043 9.86484 10.3244 9.89003 9.15931C10.5993 10.0661 11.0267 11.2174 11.0267 12.4638C11.0267 12.6823 11.017 12.8919 10.9902 13.1016C11.7515 11.921 12.1862 10.5219 12.1862 9.01306C12.1862 4.10881 8.12366 1.42756 4.60228 1.42756C4.48447 1.42756 4.37072 1.43163 4.25778 1.43731C3.88241 0.908375 3.41359 0.463938 2.87409 0.101562Z" fill="#1A202C"/>
  </g>
  <defs>
    <clipPath id="clip0_239_635">
      <rect width="13" height="13" fill="white" transform="matrix(0 -1 1 0 0.404907 13.1016)"/>
    </clipPath>
  </defs>
</svg>